<svg xmlns="http://www.w3.org/2000/svg" xmlns:xlink="http://www.w3.org/1999/xlink" width="500" zoomAndPan="magnify" viewBox="0 0 375 374.999991" height="500" preserveAspectRatio="xMidYMid meet" version="1.0"><defs><g/><clipPath id="ce445c9170"><path d="M 0.398438 0.878906 L 369.28125 0.878906 L 369.28125 348.878906 L 0.398438 348.878906 Z M 0.398438 0.878906 " clip-rule="nonzero"/></clipPath><clipPath id="cc7932626c"><path d="M 95.871094 207.929688 L 183.8125 207.929688 L 183.8125 239.417969 L 95.871094 239.417969 Z M 95.871094 207.929688 " clip-rule="nonzero"/></clipPath><clipPath id="09be4dee22"><path d="M 105.621094 207.929688 L 174.003906 207.929688 C 179.390625 207.929688 183.753906 212.296875 183.753906 217.679688 L 183.753906 229.667969 C 183.753906 235.054688 179.390625 239.417969 174.003906 239.417969 L 105.621094 239.417969 C 100.238281 239.417969 95.871094 235.054688 95.871094 229.667969 L 95.871094 217.679688 C 95.871094 212.296875 100.238281 207.929688 105.621094 207.929688 Z M 105.621094 207.929688 " clip-rule="nonzero"/></clipPath><clipPath id="b797e61c3a"><path d="M 0.871094 0.929688 L 88.761719 0.929688 L 88.761719 32.417969 L 0.871094 32.417969 Z M 0.871094 0.929688 " clip-rule="nonzero"/></clipPath><clipPath id="6deb48e721"><path d="M 10.621094 0.929688 L 79.003906 0.929688 C 84.390625 0.929688 88.753906 5.296875 88.753906 10.679688 L 88.753906 22.667969 C 88.753906 28.054688 84.390625 32.417969 79.003906 32.417969 L 10.621094 32.417969 C 5.238281 32.417969 0.871094 28.054688 0.871094 22.667969 L 0.871094 10.679688 C 0.871094 5.296875 5.238281 0.929688 10.621094 0.929688 Z M 10.621094 0.929688 " clip-rule="nonzero"/></clipPath><clipPath id="d78abd4943"><rect x="0" width="89" y="0" height="33"/></clipPath><clipPath id="8f2dd40f38"><path d="M 94.179688 47.160156 L 130.878906 47.160156 L 130.878906 83.859375 L 94.179688 83.859375 Z M 94.179688 47.160156 " clip-rule="nonzero"/></clipPath><clipPath id="6f9e550bd3"><path d="M 112.53125 47.160156 C 102.394531 47.160156 94.179688 55.375 94.179688 65.507812 C 94.179688 75.644531 102.394531 83.859375 112.53125 83.859375 C 122.664062 83.859375 130.878906 75.644531 130.878906 65.507812 C 130.878906 55.375 122.664062 47.160156 112.53125 47.160156 Z M 112.53125 47.160156 " clip-rule="nonzero"/></clipPath><clipPath id="1fcbefa7c6"><path d="M 0.179688 0.160156 L 36.878906 0.160156 L 36.878906 36.859375 L 0.179688 36.859375 Z M 0.179688 0.160156 " clip-rule="nonzero"/></clipPath><clipPath id="2369cc52d2"><path d="M 18.53125 0.160156 C 8.394531 0.160156 0.179688 8.375 0.179688 18.507812 C 0.179688 28.644531 8.394531 36.859375 18.53125 36.859375 C 28.664062 36.859375 36.878906 28.644531 36.878906 18.507812 C 36.878906 8.375 28.664062 0.160156 18.53125 0.160156 Z M 18.53125 0.160156 " clip-rule="nonzero"/></clipPath><clipPath id="ce6bb37209"><rect x="0" width="37" y="0" height="37"/></clipPath><clipPath id="19d6511d73"><path d="M 254.792969 201.808594 L 289.117188 201.808594 L 289.117188 236.132812 L 254.792969 236.132812 Z M 254.792969 201.808594 " clip-rule="nonzero"/></clipPath><clipPath id="5f472be14b"><path d="M 271.957031 201.808594 C 262.476562 201.808594 254.792969 209.492188 254.792969 218.96875 C 254.792969 228.449219 262.476562 236.132812 271.957031 236.132812 C 281.433594 236.132812 289.117188 228.449219 289.117188 218.96875 C 289.117188 209.492188 281.433594 201.808594 271.957031 201.808594 Z M 271.957031 201.808594 " clip-rule="nonzero"/></clipPath><clipPath id="45c4a64c07"><path d="M 0.792969 0.808594 L 35.117188 0.808594 L 35.117188 35.132812 L 0.792969 35.132812 Z M 0.792969 0.808594 " clip-rule="nonzero"/></clipPath><clipPath id="165f2b56c5"><path d="M 17.957031 0.808594 C 8.476562 0.808594 0.792969 8.492188 0.792969 17.96875 C 0.792969 27.449219 8.476562 35.132812 17.957031 35.132812 C 27.433594 35.132812 35.117188 27.449219 35.117188 17.96875 C 35.117188 8.492188 27.433594 0.808594 17.957031 0.808594 Z M 17.957031 0.808594 " clip-rule="nonzero"/></clipPath><clipPath id="d916402e72"><rect x="0" width="36" y="0" height="36"/></clipPath><clipPath id="dbf9f476f2"><rect x="0" width="370" y="0" height="349"/></clipPath></defs><g transform="matrix(1, 0, 0, 1, 2, 20)"><g clip-path="url(#dbf9f476f2)"><g clip-path="url(#ce445c9170)"><path fill="#47237d" d="M 314.71875 70.738281 C 210.898438 12.359375 62.703125 -33.464844 16.117188 35.699219 C -36.511719 113.828125 64.253906 172.515625 75.226562 253.226562 C 87.269531 341.832031 188.414062 383.679688 263.886719 312.910156 C 358.535156 224.152344 418.253906 128.96875 314.71875 70.738281 Z M 314.71875 70.738281 " fill-opacity="1" fill-rule="nonzero"/></g><g fill="#ffffff" fill-opacity="1"><g transform="translate(81.056837, 235.827765)"><g><path d="M 30.921875 -153.0625 C 26.128906 -153.0625 22.007812 -154.785156 18.5625 -158.234375 C 15.101562 -161.691406 13.375 -165.816406 13.375 -170.609375 C 13.375 -175.398438 15.101562 -179.523438 18.5625 -182.984375 C 21.914062 -186.335938 26.035156 -188.015625 30.921875 -188.015625 C 35.816406 -188.015625 39.941406 -186.335938 43.296875 -182.984375 C 46.753906 -179.523438 48.484375 -175.398438 48.484375 -170.609375 C 48.484375 -165.816406 46.753906 -161.691406 43.296875 -158.234375 C 39.847656 -154.785156 35.722656 -153.0625 30.921875 -153.0625 Z M 30.921875 1.296875 C 26.421875 1.296875 22.632812 -0.238281 19.5625 -3.3125 C 16.300781 -6.28125 14.671875 -10.019531 14.671875 -14.53125 L 14.671875 -122.84375 C 14.671875 -127.257812 16.300781 -131 19.5625 -134.0625 C 21 -135.507812 22.722656 -136.660156 24.734375 -137.515625 C 26.753906 -138.378906 28.867188 -138.8125 31.078125 -138.8125 C 35.390625 -138.8125 39.128906 -137.226562 42.296875 -134.0625 C 45.265625 -130.90625 46.75 -127.164062 46.75 -122.84375 L 46.75 -14.53125 C 46.75 -10.113281 45.21875 -6.375 42.15625 -3.3125 C 39.082031 -0.238281 35.335938 1.296875 30.921875 1.296875 Z M 30.921875 1.296875 "/></g></g></g><g fill="#ffffff" fill-opacity="1"><g transform="translate(142.77019, 235.827765)"><g><path d="M 25.609375 0 C 21.003906 0 17.164062 -1.535156 14.09375 -4.609375 C 10.738281 -7.671875 9.0625 -11.363281 9.0625 -15.6875 L 9.0625 -70.78125 C 9.0625 -80.082031 10.785156 -88.851562 14.234375 -97.09375 C 17.691406 -105.34375 22.535156 -112.632812 28.765625 -118.96875 C 34.910156 -125.289062 42.054688 -130.175781 50.203125 -133.625 C 58.359375 -137.082031 67.085938 -138.8125 76.390625 -138.8125 C 85.691406 -138.8125 94.515625 -137.0625 102.859375 -133.5625 C 111.203125 -130.0625 118.488281 -125.195312 124.71875 -118.96875 C 131.050781 -112.632812 135.96875 -105.316406 139.46875 -97.015625 C 142.96875 -88.722656 144.71875 -79.976562 144.71875 -70.78125 L 144.71875 -15.6875 C 144.71875 -11.269531 143.226562 -7.578125 140.25 -4.609375 C 137.1875 -1.535156 133.445312 0 129.03125 0 C 124.53125 0 120.742188 -1.535156 117.671875 -4.609375 C 114.410156 -7.578125 112.78125 -11.269531 112.78125 -15.6875 L 112.78125 -70.625 C 112.6875 -75.519531 111.675781 -80.171875 109.75 -84.578125 C 107.832031 -88.992188 105.195312 -92.832031 101.84375 -96.09375 C 98.488281 -99.445312 94.601562 -102.054688 90.1875 -103.921875 C 85.78125 -105.796875 81.179688 -106.734375 76.390625 -106.734375 C 71.398438 -106.734375 66.769531 -105.820312 62.5 -104 C 58.238281 -102.175781 54.476562 -99.632812 51.21875 -96.375 C 48.050781 -93.113281 45.578125 -89.253906 43.796875 -84.796875 C 42.023438 -80.335938 41.140625 -75.664062 41.140625 -70.78125 L 41.140625 -15.6875 C 41.140625 -11.269531 39.65625 -7.578125 36.6875 -4.609375 C 33.613281 -1.535156 29.921875 0 25.609375 0 Z M 25.609375 0 "/></g></g></g><g clip-path="url(#cc7932626c)"><g clip-path="url(#09be4dee22)"><g transform="matrix(1, 0, 0, 1, 95, 207)"><g clip-path="url(#d78abd4943)"><g clip-path="url(#b797e61c3a)"><g clip-path="url(#6deb48e721)"><path fill="#ffffff" d="M 0.871094 0.929688 L 88.8125 0.929688 L 88.8125 32.417969 L 0.871094 32.417969 Z M 0.871094 0.929688 " fill-opacity="1" fill-rule="nonzero"/></g></g></g></g></g></g><g clip-path="url(#8f2dd40f38)"><g clip-path="url(#6f9e550bd3)"><g transform="matrix(1, 0, 0, 1, 94, 47)"><g clip-path="url(#ce6bb37209)"><g clip-path="url(#1fcbefa7c6)"><g clip-path="url(#2369cc52d2)"><path fill="#2bc5f5" d="M 0.179688 0.160156 L 36.878906 0.160156 L 36.878906 36.859375 L 0.179688 36.859375 Z M 0.179688 0.160156 " fill-opacity="1" fill-rule="nonzero"/></g></g></g></g></g></g><g clip-path="url(#19d6511d73)"><g clip-path="url(#5f472be14b)"><g transform="matrix(1, 0, 0, 1, 254, 201)"><g clip-path="url(#d916402e72)"><g clip-path="url(#45c4a64c07)"><g clip-path="url(#165f2b56c5)"><path fill="#fbae18" d="M 0.792969 0.808594 L 35.117188 0.808594 L 35.117188 35.132812 L 0.792969 35.132812 Z M 0.792969 0.808594 " fill-opacity="1" fill-rule="nonzero"/></g></g></g></g></g></g></g></g></svg>